<?xml version="1.0" standalone="no"?>
<!DOCTYPE svg PUBLIC "-//W3C//DTD SVG 20010904//EN"
 "http://www.w3.org/TR/2001/REC-SVG-20010904/DTD/svg10.dtd">
<svg version="1.0" xmlns="http://www.w3.org/2000/svg"
 width="126.000000pt" height="65.000000pt" viewBox="0 0 126.000000 65.000000"
 preserveAspectRatio="xMidYMid meet">

<g transform="translate(0.000000,65.000000) scale(0.100000,-0.100000)"
fill="#000000" stroke="none">
<path d="M0 325 l0 -325 630 0 630 0 0 325 0 325 -630 0 -630 0 0 -325z m510
155 c0 -5 7 -10 16 -10 12 0 11 -5 -7 -20 -19 -15 -26 -16 -34 -6 -5 7 -17 15
-25 19 -12 4 -11 6 3 6 9 1 17 6 17 11 0 6 7 10 15 10 8 0 15 -4 15 -10z
m-440 -315 c0 -18 5 -25 20 -25 15 0 20 7 20 25 0 14 5 25 10 25 6 0 10 -25
10 -55 0 -30 -4 -55 -10 -55 -5 0 -10 12 -10 26 0 33 -33 30 -38 -4 -7 -44
-22 -21 -22 33 0 30 5 55 10 55 6 0 10 -11 10 -25z m102 -22 c2 -36 7 -49 21
-51 14 -3 17 4 17 47 0 28 5 51 10 51 6 0 10 -23 10 -50 0 -55 -11 -67 -55
-56 -22 6 -25 11 -25 56 0 64 18 66 22 3z m116 15 c6 -17 10 -33 8 -36 -2 -2
-7 6 -11 17 -11 35 -25 24 -25 -19 0 -22 -4 -40 -10 -40 -5 0 -10 25 -10 55 0
46 3 55 18 55 11 0 22 -12 30 -32z m52 -24 c0 -47 -3 -55 -17 -52 -10 2 -18 9
-17 16 1 6 2 30 3 52 1 28 5 40 16 40 12 0 15 -13 15 -56z m73 49 c-8 -3 -13
-24 -13 -54 0 -27 -4 -49 -10 -49 -5 0 -10 20 -10 45 0 31 -5 47 -17 54 -14 8
-10 10 22 10 22 0 34 -3 28 -6z m120 0 c-8 -3 -13 -24 -13 -54 0 -27 -4 -49
-10 -49 -5 0 -10 20 -10 45 0 31 -5 47 -17 54 -14 8 -10 10 22 10 22 0 34 -3
28 -6z m37 -18 c0 -18 5 -25 20 -25 15 0 20 7 20 25 0 14 5 25 10 25 6 0 10
-25 10 -55 0 -30 -4 -55 -10 -55 -5 0 -10 12 -10 26 0 33 -33 30 -38 -4 -7
-44 -22 -21 -22 33 0 30 5 55 10 55 6 0 10 -11 10 -25z m135 16 c-41 -8 -47
-41 -8 -42 26 -1 26 -1 5 -7 -33 -10 -32 -26 1 -30 33 -4 36 -22 3 -22 -45 0
-56 10 -56 49 0 45 15 61 55 60 l30 -1 -30 -7z m165 -6 c10 -12 10 -15 -4 -15
-9 0 -16 4 -16 9 0 5 -10 12 -22 14 -21 4 -20 4 3 6 15 0 32 -6 39 -14z m93
-15 c6 -16 15 -30 19 -30 4 0 8 14 8 30 0 35 6 37 35 10 l22 -20 18 20 c28 31
35 24 35 -35 0 -30 -4 -55 -10 -55 -5 0 -10 18 -10 40 0 39 -12 52 -26 29 -4
-8 -9 -8 -17 0 -20 20 -27 12 -27 -29 0 -36 -3 -40 -25 -40 -21 0 -26 6 -31
40 -7 43 -24 55 -24 18 -1 -23 -21 -58 -34 -58 -3 0 -6 11 -6 25 0 14 5 25 10
25 6 0 10 8 10 18 0 19 18 42 33 42 5 0 14 -13 20 -30z m202 21 c-41 -8 -47
-41 -8 -42 26 -1 26 -1 5 -7 -33 -10 -32 -26 1 -30 33 -4 36 -22 3 -22 -45 0
-56 10 -56 49 0 45 15 61 55 60 l30 -1 -30 -7z m-337 -79 c27 -4 31 24 5 31
-10 3 -3 5 15 6 27 1 32 -2 32 -23 0 -37 -49 -49 -82 -19 -18 16 -24 53 -10
67 4 4 9 -7 12 -26 4 -25 11 -34 28 -36z"/>
</g>
</svg>
